<svg width="436.8187622070312px" height="120.78869323730468px" xmlns="http://www.w3.org/2000/svg" viewBox="31.590618896484386 14.605653381347658 436.8187622070312 120.78869323730468" style="background: rgba(0, 0, 0, 0);" preserveAspectRatio="xMidYMid"><defs><linearGradient id="editing-outline-gradient" x1="1.338670567945424" x2="-0.33867056794542416" y1="-0.04463903501502686" y2="1.044639035015027"><stop offset="0" stop-color="#ee4208"></stop><stop offset="1" stop-color="#4139ff"></stop></linearGradient><filter id="editing-outline" x="-100%" y="-100%" width="300%" height="300%"><feMorphology in="SourceGraphic" operator="dilate" radius="1" result="outline"></feMorphology><feComposite operator="out" in="outline" in2="SourceAlpha"></feComposite></filter></defs><g filter="url(#editing-outline)"><g transform="translate(100.15218925476074, 98.64093780517578)"><path d="M29.18 1.28L29.18 1.28L29.18 1.28Q20.99 1.28 20.22-10.37L20.22-10.37L9.22-10.37L9.22-10.37Q7.94-7.42 7.04-4.86L7.04-4.86L5.38 0L-3.58 0L16.58-42.24L30.34-42.24L33.02-11.14L33.02-11.14Q33.66-4.42 36.22-2.43L36.22-2.43L36.22-2.43Q34.37 1.28 29.18 1.28ZM14.72-23.17L11.20-15.04L20.03-15.04L19.26-31.49L19.26-33.22L14.72-23.17ZM55.23-3.52L55.23-3.52L55.23-3.52Q53.25 1.28 46.91 1.28L46.91 1.28L46.91 1.28Q43.71 1.28 41.66-0.96L41.66-0.96L41.66-0.96Q40-2.82 40-4.93L40-4.93L40-4.93Q40-9.73 42.24-20.22L42.24-20.22L46.91-44.80L59.90-46.08L53.70-13.70L53.70-13.70Q52.61-8.96 52.61-7.30L52.61-7.30L52.61-7.30Q52.61-3.65 55.23-3.52ZM63.04-10.37L63.04-10.37L63.04-10.37Q60.99-11.84 60.99-14.66L60.99-14.66L60.99-14.66Q60.99-16.19 61.76-17.44L61.76-17.44L61.76-17.44Q62.53-18.69 64.06-18.88L64.06-18.88L76.67-18.88L76.67-18.88Q78.78-18.88 79.42-20.16L79.42-20.16L79.42-20.16Q80.45-19.58 80.90-18.37L80.90-18.37L80.90-18.37Q81.34-17.15 81.34-15.87L81.34-15.87L81.34-15.87Q81.34-14.59 80.35-13.34L80.35-13.34L80.35-13.34Q79.36-12.10 77.89-11.97L77.89-11.97L66.18-11.97L66.18-11.97Q64.83-11.97 64.19-11.55L64.19-11.55L64.19-11.55Q63.55-11.14 63.04-10.37ZM90.88-31.17L90.88-31.17L90.88-31.17Q88.70-32.83 88.70-36.38L88.70-36.38L88.70-36.38Q88.70-39.94 91.04-41.79L91.04-41.79L91.04-41.79Q93.38-43.65 97.41-43.65L97.41-43.65L97.41-43.65Q99.97-43.65 106.05-42.75L106.05-42.75L110.40-42.11L110.40-42.11Q112.58-41.86 114.85-41.86L114.85-41.86L114.85-41.86Q117.12-41.86 118.66-42.82L118.66-42.82L118.66-42.82Q120.96-40.77 120.96-37.82L120.96-37.82L120.96-37.82Q120.96-34.88 118.34-32.77L118.34-32.77L118.34-32.77Q115.65-30.53 112.19-30.53L112.19-30.53L112.19-30.53Q110.53-30.53 107.84-30.98L107.84-30.98L107.84-30.98Q104.70-21.12 104.70-14.27L104.70-14.27L104.70-14.27Q104.70-7.42 108.16-3.84L108.16-3.84L108.16-3.84Q106.56-0.96 104.19 0.16L104.19 0.16L104.19 0.16Q101.82 1.28 98.27 1.28L98.27 1.28L98.27 1.28Q94.72 1.28 92.51-0.67L92.51-0.67L92.51-0.67Q90.30-2.62 90.30-6.66L90.30-6.66L90.30-6.66Q90.30-11.33 92.86-19.01L92.86-19.01L92.86-19.01Q95.42-26.62 99.26-32.45L99.26-32.45L99.26-32.45Q97.41-32.64 95.49-32.64L95.49-32.64L95.49-32.64Q91.52-32.64 90.88-31.17ZM118.75-1.92L118.75-1.92L118.75-1.92Q117.25-3.58 116.58-6.21L116.58-6.21L116.58-6.21Q115.90-8.83 115.90-13.12L115.90-13.12L115.90-13.12Q115.90-17.41 117.38-21.31L117.38-21.31L117.38-21.31Q118.85-25.22 121.54-28.03L121.54-28.03L121.54-28.03Q127.04-33.92 136.13-33.92L136.13-33.92L136.13-33.92Q139.39-33.92 141.76-32.83L141.76-32.83L152.70-33.92L147.97-8.96L147.97-8.96Q147.78-8.19 147.78-6.78L147.78-6.78L147.78-6.78Q147.78-5.38 148.64-4.48L148.64-4.48L148.64-4.48Q149.50-3.58 150.78-3.46L150.78-3.46L150.78-3.46Q150.14-1.28 147.81 0L147.81 0L147.81 0Q145.47 1.28 142.85 1.28L142.85 1.28L142.85 1.28Q140.22 1.28 138.46 0.29L138.46 0.29L138.46 0.29Q136.70-0.70 136.19-2.37L136.19-2.37L136.19-2.37Q135.17-0.77 132.99 0.26L132.99 0.26L132.99 0.26Q130.82 1.28 127.90 1.28L127.90 1.28L127.90 1.28Q124.99 1.28 122.62 0.51L122.62 0.51L122.62 0.51Q120.26-0.26 118.75-1.92ZM132.26-27.90L132.26-27.90L132.26-27.90Q131.52-26.75 130.88-24.80L130.88-24.80L130.88-24.80Q130.24-22.85 129.18-17.63L129.18-17.63L129.18-17.63Q128.13-12.42 128.13-8.70L128.13-8.70L128.13-8.70Q128.13-4.99 128.70-3.90L128.70-3.90L128.70-3.90Q129.28-2.82 130.30-2.82L130.30-2.82L130.30-2.82Q132.35-2.82 133.86-4.77L133.86-4.77L133.86-4.77Q135.36-6.72 135.94-10.18L135.94-10.18L139.33-28.93L139.33-28.93Q137.98-30.08 136.42-30.08L136.42-30.08L136.42-30.08Q134.85-30.08 133.92-29.57L133.92-29.57L133.92-29.57Q132.99-29.06 132.26-27.90ZM171.46-3.52L171.46-3.52L171.46-3.52Q169.47 1.28 163.14 1.28L163.14 1.28L163.14 1.28Q159.94 1.28 157.89-0.96L157.89-0.96L157.89-0.96Q156.22-2.82 156.22-4.93L156.22-4.93L156.22-4.93Q156.22-9.73 158.46-20.22L158.46-20.22L163.14-44.80L176.13-46.08L169.92-13.70L169.92-13.70Q168.83-8.96 168.83-7.30L168.83-7.30L168.83-7.30Q168.83-3.65 171.46-3.52ZM202.82-10.82L202.82-10.82L202.82-10.82Q204.42-9.73 204.42-7.33L204.42-7.33L204.42-7.33Q204.42-4.93 203.20-3.39L203.20-3.39L203.20-3.39Q201.98-1.86 200-0.83L200-0.83L200-0.83Q195.90 1.28 191.49 1.28L191.49 1.28L191.49 1.28Q187.07 1.28 184.48 0.32L184.48 0.32L184.48 0.32Q181.89-0.64 180.16-2.43L180.16-2.43L180.16-2.43Q176.77-5.82 176.77-12.03L176.77-12.03L176.77-12.03Q176.77-21.70 182.02-27.58L182.02-27.58L182.02-27.58Q187.65-33.92 197.44-33.92L197.44-33.92L197.44-33.92Q203.52-33.92 206.53-31.36L206.53-31.36L206.53-31.36Q208.77-29.44 208.77-26.30L208.77-26.30L208.77-26.30Q208.77-15.04 189.31-15.04L189.31-15.04L189.31-15.04Q189.06-13.38 189.06-11.97L189.06-11.97L189.06-11.97Q189.06-9.02 190.37-7.90L190.37-7.90L190.37-7.90Q191.68-6.78 194.11-6.78L194.11-6.78L194.11-6.78Q196.54-6.78 199.14-7.90L199.14-7.90L199.14-7.90Q201.73-9.02 202.82-10.82ZM189.76-17.79L189.76-17.79L189.76-17.79Q194.30-17.79 196.93-20.61L196.93-20.61L196.93-20.61Q199.55-23.30 199.55-27.58L199.55-27.58L199.55-27.58Q199.55-29.06 199.01-29.86L199.01-29.86L199.01-29.86Q198.46-30.66 197.38-30.66L197.38-30.66L197.38-30.66Q196.29-30.66 195.36-30.24L195.36-30.24L195.36-30.24Q194.43-29.82 193.47-28.42L193.47-28.42L193.47-28.42Q191.10-25.22 189.76-17.79ZM236.86-10.82L236.86-10.82L236.86-10.82Q238.46-9.73 238.46-7.33L238.46-7.33L238.46-7.33Q238.46-4.93 237.25-3.39L237.25-3.39L237.25-3.39Q236.03-1.86 234.05-0.83L234.05-0.83L234.05-0.83Q229.95 1.28 225.54 1.28L225.54 1.28L225.54 1.28Q221.12 1.28 218.53 0.32L218.53 0.32L218.53 0.32Q215.94-0.64 214.21-2.43L214.21-2.43L214.21-2.43Q210.82-5.82 210.82-12.03L210.82-12.03L210.82-12.03Q210.82-21.70 216.06-27.58L216.06-27.58L216.06-27.58Q221.70-33.92 231.49-33.92L231.49-33.92L231.49-33.92Q237.57-33.92 240.58-31.36L240.58-31.36L240.58-31.36Q242.82-29.44 242.82-26.30L242.82-26.30L242.82-26.30Q242.82-15.04 223.36-15.04L223.36-15.04L223.36-15.04Q223.10-13.38 223.10-11.97L223.10-11.97L223.10-11.97Q223.10-9.02 224.42-7.90L224.42-7.90L224.42-7.90Q225.73-6.78 228.16-6.78L228.16-6.78L228.16-6.78Q230.59-6.78 233.18-7.90L233.18-7.90L233.18-7.90Q235.78-9.02 236.86-10.82ZM223.81-17.79L223.81-17.79L223.81-17.79Q228.35-17.79 230.98-20.61L230.98-20.61L230.98-20.61Q233.60-23.30 233.60-27.58L233.60-27.58L233.60-27.58Q233.60-29.06 233.06-29.86L233.06-29.86L233.06-29.86Q232.51-30.66 231.42-30.66L231.42-30.66L231.42-30.66Q230.34-30.66 229.41-30.24L229.41-30.24L229.41-30.24Q228.48-29.82 227.52-28.42L227.52-28.42L227.52-28.42Q225.15-25.22 223.81-17.79ZM291.07 1.28L291.07 1.28L291.07 1.28Q283.33 1.28 283.33-4.74L283.33-4.74L283.33-4.74Q283.33-7.36 284.45-12.45L284.45-12.45L284.45-12.45Q285.57-17.54 285.95-19.58L285.95-19.58L285.95-19.58Q286.85-24.26 286.85-25.73L286.85-25.73L286.85-25.73Q286.85-28.99 284.42-28.99L284.42-28.99L284.42-28.99Q282.82-28.99 281.28-26.78L281.28-26.78L281.28-26.78Q279.74-24.58 279.04-20.16L279.04-20.16L275.07 0L262.59 1.28L266.05-16.13L266.05-16.13Q266.62-19.01 267.14-22.27L267.14-22.27L267.14-22.27Q267.65-25.54 267.65-26.05L267.65-26.05L267.65-26.05Q267.65-28.99 265.47-28.99L265.47-28.99L265.47-28.99Q264-28.99 262.40-26.82L262.40-26.82L262.40-26.82Q260.80-24.64 259.90-20.16L259.90-20.16L256 0L243.39 1.28L250.11-32.64L260.54-33.92L259.46-27.46L259.46-27.46Q261.12-30.91 264.19-32.42L264.19-32.42L264.19-32.42Q267.26-33.92 272.06-33.92L272.06-33.92L272.06-33.92Q274.82-33.92 276.61-32.58L276.61-32.58L276.61-32.58Q278.40-31.23 278.98-29.06L278.98-29.06L278.98-29.06Q280.06-31.30 282.85-32.61L282.85-32.61L282.85-32.61Q285.63-33.92 289.06-33.92L289.06-33.92L289.06-33.92Q292.48-33.92 294.18-33.18L294.18-33.18L294.18-33.18Q295.87-32.45 296.90-31.23L296.90-31.23L296.90-31.23Q298.62-28.99 298.62-24.90L298.62-24.90L298.62-24.90Q298.62-20.86 296.90-12.48L296.90-12.48L296.90-12.48Q296-8.38 296-6.88L296-6.88L296-6.88Q296-5.38 296.86-4.48L296.86-4.48L296.86-4.48Q297.73-3.58 299.01-3.46L299.01-3.46L299.01-3.46Q298.37-1.28 296.16 0L296.16 0L296.16 0Q293.95 1.28 291.07 1.28Z" fill="url(#editing-outline-gradient)"></path></g></g><style>text {
  font-size: 64px;
  font-family: Arial Black;
  dominant-baseline: central;
  text-anchor: middle;
}</style></svg>